<svg xmlns="http://www.w3.org/2000/svg" width="1280" height="640" viewBox="0 0 1280 640" role="img" aria-labelledby="title desc">
  <title id="title">Auto-ISD social preview</title>
  <desc id="desc">Peer-reviewed automated CT pelvimetry pipeline with interactive demo.</desc>
  <defs>
    <linearGradient id="bg" x1="0" y1="0" x2="1" y2="1"><stop stop-color="#071A2B"/><stop offset="1" stop-color="#12364B"/></linearGradient>
    <pattern id="grid" width="32" height="32" patternUnits="userSpaceOnUse"><path d="M32 0H0V32" fill="none" stroke="#5EEAD4" stroke-opacity="0.05"/></pattern>
    <marker id="arrow" markerWidth="10" markerHeight="10" refX="7" refY="5" orient="auto"><path d="M0 0L10 5L0 10Z" fill="#2DD4BF"/></marker>
  </defs>
  <rect width="1280" height="640" rx="28" fill="url(#bg)"/><rect width="1280" height="640" rx="28" fill="url(#grid)"/>
  <rect x="54" y="62" width="8" height="516" rx="4" fill="#2DD4BF"/>
  <text x="88" y="94" fill="#5EEAD4" font-family="Arial, Helvetica, sans-serif" font-size="22" font-weight="700" letter-spacing="3">PEER-REVIEWED RESEARCH · MEDICAL IMAGING</text>
  <text x="86" y="188" fill="#F8FAFC" font-family="Arial, Helvetica, sans-serif" font-size="70" font-weight="750">Auto-ISD</text>
  <text x="88" y="236" fill="#C6D5DF" font-family="Arial, Helvetica, sans-serif" font-size="27">Automated CT-based pelvimetry</text>
  <text x="88" y="272" fill="#C6D5DF" font-family="Arial, Helvetica, sans-serif" font-size="27">and mid-pelvic workspace quantification</text>
  <text x="88" y="318" fill="#8FB2C3" font-family="Arial, Helvetica, sans-serif" font-size="22">Rectal cancer · segmentation · reproducible geometry</text>
  <g font-family="Arial, Helvetica, sans-serif" font-size="19" font-weight="700">
    <rect x="88" y="462" width="190" height="48" rx="24" fill="#123E50" stroke="#2DD4BF"/><text x="183" y="493" text-anchor="middle" fill="#E6FFFB">IJCARS 2026</text>
    <rect x="294" y="462" width="174" height="48" rx="24" fill="#123E50" stroke="#2DD4BF"/><text x="381" y="493" text-anchor="middle" fill="#E6FFFB">DOI verified</text>
    <rect x="484" y="462" width="162" height="48" rx="24" fill="#123E50" stroke="#2DD4BF"/><text x="565" y="493" text-anchor="middle" fill="#E6FFFB">Live demo</text>
  </g>
  <text x="88" y="566" fill="#6E93A7" font-family="Arial, Helvetica, sans-serif" font-size="18">10.1007/s11548-026-03606-2 · odafeng/auto-isd-pelvimetry</text>
  <g transform="translate(760 154)" font-family="Arial, Helvetica, sans-serif">
    <rect width="430" height="330" rx="28" fill="#0C2739" stroke="#2DD4BF" stroke-opacity="0.7"/>
    <g transform="translate(50 72)">
      <circle cx="38" cy="54" r="38" fill="#163A4D" stroke="#8FB2C3"/><ellipse cx="38" cy="54" rx="18" ry="25" fill="none" stroke="#5EEAD4"/>
      <text x="38" y="122" text-anchor="middle" fill="#C6D5DF" font-size="17">CT</text>
      <line x1="88" y1="54" x2="142" y2="54" stroke="#2DD4BF" stroke-width="3" marker-end="url(#arrow)"/>
      <rect x="158" y="16" width="76" height="76" rx="16" fill="#163A4D" stroke="#8FB2C3"/>
      <path d="M174 68C186 32 206 30 218 68" fill="none" stroke="#5EEAD4" stroke-width="5"/>
      <text x="196" y="122" text-anchor="middle" fill="#C6D5DF" font-size="17">Masks</text>
      <line x1="250" y1="54" x2="304" y2="54" stroke="#2DD4BF" stroke-width="3" marker-end="url(#arrow)"/>
      <circle cx="342" cy="54" r="38" fill="#163A4D" stroke="#8FB2C3"/>
      <path d="M320 74L342 30L364 74Z" fill="none" stroke="#5EEAD4" stroke-width="4"/><line x1="320" y1="74" x2="364" y2="74" stroke="#F8FAFC" stroke-width="3"/>
      <text x="342" y="122" text-anchor="middle" fill="#C6D5DF" font-size="17">Metrics</text>
    </g>
    <rect x="54" y="232" width="322" height="58" rx="18" fill="#123E50"/>
    <text x="215" y="268" text-anchor="middle" fill="#E6FFFB" font-size="20" font-weight="700">Paper → code → interactive demo</text>
  </g>
</svg>
